<svg xmlns="http://www.w3.org/2000/svg" style="display: none;">
    <symbol id="swap" viewBox="0 0 512 512"><title>Change operations</title><path d="m92.69 216c6.23 6.24 16.39 6.24 22.62 0l20.69-20.69c6.24-6.23 6.24-16.39 0-22.62l-20.69-20.69h284.69c26.47 0 48 21.53 48 48 0 13.23 10.77 24 24 24h16c13.23 0 24-10.77 24-24 0-61.76-50.24-112-112-112h-284.69l20.69-20.69c6.24-6.23 6.24-16.39 0-22.62l-20.69-20.69c-6.23-6.24-16.39-6.24-22.62 0l-90.35 90.34c-3.12 3.13-3.12 8.19 0 11.32z"/><path d="m419.31 296c-6.23-6.24-16.38-6.24-22.62 0l-20.69 20.69c-6.252 6.252-6.262 16.358 0 22.62l20.69 20.69h-284.69c-26.47 0-48-21.53-48-48 0-13.23-10.77-24-24-24h-16c-13.23 0-24 10.77-24 24 0 61.76 50.24 112 112 112h284.69l-20.69 20.69c-6.252 6.252-6.262 16.358 0 22.62l20.69 20.69c6.241 6.241 16.38 6.24 22.62 0l90.35-90.34c3.12-3.13 3.12-8.19 0-11.32z"/></symbol>
    <symbol id="check-mark" viewBox="0 0 45.701 45.7"><title>Accept</title><path d="M20.687,38.332c-2.072,2.072-5.434,2.072-7.505,0L1.554,26.704c-2.072-2.071-2.072-5.433,0-7.504 c2.071-2.072,5.433-2.072,7.505,0l6.928,6.927c0.523,0.522,1.372,0.522,1.896,0L36.642,7.368c2.071-2.072,5.433-2.072,7.505,0 c0.995,0.995,1.554,2.345,1.554,3.752c0,1.407-0.559,2.757-1.554,3.752L20.687,38.332z"/></symbol>
    <symbol id="close-cross" viewBox="0 0 41.756 41.756"><title>Decline</title><path d="M27.948,20.878L40.291,8.536c1.953-1.953,1.953-5.119,0-7.071c-1.951-1.952-5.119-1.952-7.07,0L20.878,13.809L8.535,1.465 c-1.951-1.952-5.119-1.952-7.07,0c-1.953,1.953-1.953,5.119,0,7.071l12.342,12.342L1.465,33.22c-1.953,1.953-1.953,5.119,0,7.071 C2.44,41.268,3.721,41.755,5,41.755c1.278,0,2.56-0.487,3.535-1.464l12.343-12.342l12.343,12.343 c0.976,0.977,2.256,1.464,3.535,1.464s2.56-0.487,3.535-1.464c1.953-1.953,1.953-5.119,0-7.071L27.948,20.878z"/></symbol>
    <symbol id="information" viewBox="0 0 512 512"><title>Authors</title><path d="M257,0C116.39,0,0,114.39,0,255s116.39,257,257,257s255-116.39,255-257S397.61,0,257,0z M287,392c0,16.54-13.47,30-30,30 c-16.54,0-30-13.46-30-30V240c0-16.54,13.46-30,30-30c16.53,0,30,13.46,30,30V392z M257,150c-16.54,0-30-13.46-30-30 s13.46-30,30-30c16.53,0,30,13.46,30,30S273.53,150,257,150z"/></symbol>
</svg>